name ./resultDataOpenSim/trcMotMarkerGrf/sub10/grf-05-06.mot
datacolumns 19
datarows 20
range 1.00400000 1.08000000
endheader

                time	     ground_force_vx	     ground_force_vy	     ground_force_vz	     ground_force_px	     ground_force_py	     ground_force_pz	   l_ground_force_vx	   l_ground_force_vy	   l_ground_force_vz	   l_ground_force_px	   l_ground_force_py	   l_ground_force_pz	     ground_torque_x	     ground_torque_y	     ground_torque_z	   l_ground_torque_x	   l_ground_torque_y	   l_ground_torque_z	
          1.00400000	          0.00000000	          0.00000000	          0.00000000	          0.00000000	          0.00000000	          0.00000000	         -9.52427594	        296.65330387	         18.01276467	          0.05567747	         -0.10000000	         -0.10879816	          0.00000000	          0.00000000	          0.00000000	          0.00000000	          0.30327343	          0.00000000	
          1.00800000	          0.00000000	          0.00000000	          0.00000000	          0.00000000	          0.00000000	          0.00000000	         -7.55109991	        289.26902132	         17.79692752	          0.05537721	         -0.10000000	         -0.10869682	          0.00000000	          0.00000000	          0.00000000	          0.00000000	          0.25359711	          0.00000000	
          1.01200000	          0.00000000	          0.00000000	          0.00000000	          0.00000000	          0.00000000	          0.00000000	         -5.74073585	        282.70410935	         17.63236269	          0.05518314	         -0.10000000	         -0.10861686	          0.00000000	          0.00000000	          0.00000000	          0.00000000	          0.20089529	          0.00000000	
          1.01600000	          0.00000000	          0.00000000	          0.00000000	          0.00000000	          0.00000000	          0.00000000	         -4.11323169	        276.80873958	         17.52178486	          0.05510221	         -0.10000000	         -0.10852309	          0.00000000	          0.00000000	          0.00000000	          0.00000000	          0.14370642	          0.00000000	
          1.02000000	          0.00000000	          0.00000000	          0.00000000	          0.00000000	          0.00000000	          0.00000000	         -2.65974607	        271.49302733	         17.45454987	          0.05505512	         -0.10000000	         -0.10841737	          0.00000000	          0.00000000	          0.00000000	          0.00000000	          0.08127184	          0.00000000	
          1.02400000	          0.00000000	          0.00000000	          0.00000000	          0.00000000	          0.00000000	          0.00000000	         -1.37563713	        266.72673016	         17.42037929	          0.05495926	         -0.10000000	         -0.10829889	          0.00000000	          0.00000000	          0.00000000	          0.00000000	          0.01349160	          0.00000000	
          1.02800000	          0.00000000	          0.00000000	          0.00000000	          0.00000000	          0.00000000	          0.00000000	         -0.26967461	        262.55470444	         17.41507502	          0.05480847	         -0.10000000	         -0.10811966	          0.00000000	          0.00000000	          0.00000000	          0.00000000	         -0.05929484	          0.00000000	
          1.03200000	          0.00000000	          0.00000000	          0.00000000	          0.00000000	          0.00000000	          0.00000000	          0.67090800	        259.09830403	         17.43541468	          0.05465750	         -0.10000000	         -0.10782136	          0.00000000	          0.00000000	          0.00000000	          0.00000000	         -0.13658750	          0.00000000	
          1.03600000	          0.00000000	          0.00000000	          0.00000000	          0.00000000	          0.00000000	          0.00000000	          1.51178724	        256.53656115	         17.47223381	          0.05457124	         -0.10000000	         -0.10738433	          0.00000000	          0.00000000	          0.00000000	          0.00000000	         -0.21809922	          0.00000000	
          1.04000000	          0.00000000	          0.00000000	          0.00000000	          0.00000000	          0.00000000	          0.00000000	          2.36303941	        255.08480230	         17.50818683	          0.05459165	         -0.10000000	         -0.10684507	          0.00000000	          0.00000000	          0.00000000	          0.00000000	         -0.30425107	          0.00000000	
          1.04400000	          0.00000000	          0.00000000	          0.00000000	          0.00000000	          0.00000000	          0.00000000	          3.34288474	        254.98177037	         17.52025239	          0.05474756	         -0.10000000	         -0.10625366	          0.00000000	          0.00000000	          0.00000000	          0.00000000	         -0.39660340	          0.00000000	
          1.04800000	          0.00000000	          0.00000000	          0.00000000	          0.00000000	          0.00000000	          0.00000000	          4.53724680	        256.47514115	         17.48892821	          0.05505262	         -0.10000000	         -0.10563592	          0.00000000	          0.00000000	          0.00000000	          0.00000000	         -0.49789168	          0.00000000	
          1.05200000	          0.00000000	          0.00000000	          0.00000000	          0.00000000	          0.00000000	          0.00000000	          5.97840706	        259.79488152	         17.40929837	          0.05549814	         -0.10000000	         -0.10500014	          0.00000000	          0.00000000	          0.00000000	          0.00000000	         -0.61149171	          0.00000000	
          1.05600000	          0.00000000	          0.00000000	          0.00000000	          0.00000000	          0.00000000	          0.00000000	          7.65625527	        265.13400085	         17.29330873	          0.05603999	         -0.10000000	         -0.10435678	          0.00000000	          0.00000000	          0.00000000	          0.00000000	         -0.74051802	          0.00000000	
          1.06000000	          0.00000000	          0.00000000	          0.00000000	          0.00000000	          0.00000000	          0.00000000	          9.53958905	        272.65309199	         17.16569870	          0.05657720	         -0.10000000	         -0.10373601	          0.00000000	          0.00000000	          0.00000000	          0.00000000	         -0.88704498	          0.00000000	
          1.06400000	          0.00000000	          0.00000000	          0.00000000	          0.00000000	          0.00000000	          0.00000000	         11.57585447	        282.48269105	         17.06331726	          0.05699049	         -0.10000000	         -0.10317032	          0.00000000	          0.00000000	          0.00000000	          0.00000000	         -1.05187140	          0.00000000	
          1.06800000	          0.00000000	          0.00000000	          0.00000000	          0.00000000	          0.00000000	          0.00000000	         13.68318016	        294.68168885	         17.03423569	          0.05723604	         -0.10000000	         -0.10265429	          0.00000000	          0.00000000	          0.00000000	          0.00000000	         -1.23488128	          0.00000000	
          1.07200000	          0.00000000	          0.00000000	          0.00000000	          0.00000000	          0.00000000	          0.00000000	         15.76899583	        309.17844406	         17.12308235	          0.05736682	         -0.10000000	         -0.10215948	          0.00000000	          0.00000000	          0.00000000	          0.00000000	         -1.43569324	          0.00000000	
          1.07600000	          0.00000000	          0.00000000	          0.00000000	          0.00000000	          0.00000000	          0.00000000	         17.76390236	        325.78246001	         17.34287126	          0.05746984	         -0.10000000	         -0.10167291	          0.00000000	          0.00000000	          0.00000000	          0.00000000	         -1.65417411	          0.00000000	
          1.08000000	          0.00000000	          0.00000000	          0.00000000	          0.00000000	          0.00000000	          0.00000000	         19.64034549	        344.27588887	         17.65633051	          0.05761669	         -0.10000000	         -0.10120913	          0.00000000	          0.00000000	          0.00000000	          0.00000000	         -1.89053441	          0.00000000	
